<?xml version="1.0" encoding="UTF-8"?>
<svg width="24px" height="24px" viewBox="0 0 24 24" version="1.1" xmlns="http://www.w3.org/2000/svg">
  <path d="M21 16V8a2 2 0 0 0-1-1.73l-7-4a2 2 0 0 0-2 0l-7 4A2 2 0 0 0 3 8v8a2 2 0 0 0 1 1.73l7 4a2 2 0 0 0 2 0l7-4A2 2 0 0 0 21 16z" fill="none" stroke="white" stroke-width="2"/>
  <polyline points="3.27 6.96 12 12.01 20.73 6.96" fill="none" stroke="white" stroke-width="2"/>
  <line x1="12" y1="22.08" x2="12" y2="12" stroke="white" stroke-width="2"/>
</svg>